<?xml version="1.0" encoding="UTF-8"?>
<!DOCTYPE svg PUBLIC "-//W3C//DTD SVG 1.1//EN" "http://www.w3.org/Graphics/SVG/1.1/DTD/svg11.dtd">
<svg xmlns="http://www.w3.org/2000/svg" version="1.1" width="512px" height="512px" style="shape-rendering:geometricPrecision; text-rendering:geometricPrecision; image-rendering:optimizeQuality; fill-rule:evenodd; clip-rule:evenodd" xmlns:xlink="http://www.w3.org/1999/xlink">
<g><path style="opacity:1" fill="#ff4500" d="M -0.5,-0.5 C 170.167,-0.5 340.833,-0.5 511.5,-0.5C 511.5,170.167 511.5,340.833 511.5,511.5C 340.833,511.5 170.167,511.5 -0.5,511.5C -0.5,340.833 -0.5,170.167 -0.5,-0.5 Z"/></g>
<g><path style="opacity:1" fill="#fffdfd" d="M 128.5,129.5 C 214.864,129.016 301.197,129.516 387.5,131C 407.061,137.227 418.894,150.394 423,170.5C 423.667,185.167 423.667,199.833 423,214.5C 418.761,235.07 406.594,248.237 386.5,254C 317.534,255.15 248.534,255.984 179.5,256.5C 174.731,262.89 169.398,268.723 163.5,274C 154.007,277.63 146.174,275.463 140,267.5C 137.217,263.049 134.05,258.883 130.5,255C 107.355,250.522 93.5221,236.689 89,213.5C 88.3333,199.167 88.3333,184.833 89,170.5C 93.9438,148.726 107.11,135.059 128.5,129.5 Z"/></g>
<g><path style="opacity:1" fill="#ff4a0b" d="M 142.5,162.5 C 217.834,162.333 293.167,162.5 368.5,163C 375.392,165.851 377.225,170.684 374,177.5C 372.363,179.81 370.196,181.31 367.5,182C 292.5,182.667 217.5,182.667 142.5,182C 134.53,175.423 134.53,168.923 142.5,162.5 Z"/></g>
<g><path style="opacity:1" fill="#ff4b0c" d="M 144.5,201.5 C 175.168,201.333 205.835,201.5 236.5,202C 244.417,204.72 246.584,209.887 243,217.5C 241.421,219.041 239.587,220.208 237.5,221C 205.833,221.667 174.167,221.667 142.5,221C 136.283,217.111 134.95,211.944 138.5,205.5C 140.29,203.684 142.29,202.351 144.5,201.5 Z"/></g>
<g><path style="opacity:1" fill="#fffcfc" d="M 112.5,378.5 C 112.833,373.167 113.167,367.833 113.5,362.5C 114.336,357.166 114.836,351.833 115,346.5C 107.667,340.5 101,333.833 95,326.5C 93.8779,322.077 95.3779,319.077 99.5,317.5C 103.489,317.884 107.155,317.217 110.5,315.5C 116.229,314.888 121.896,313.888 127.5,312.5C 131.682,304.136 135.849,295.802 140,287.5C 144.018,284.561 147.685,284.895 151,288.5C 155.039,296.745 159.206,304.911 163.5,313C 173.049,315.134 182.715,316.801 192.5,318C 195.349,320.559 196.183,323.726 195,327.5C 187.985,334.348 181.152,341.348 174.5,348.5C 177.213,358.325 178.38,368.325 178,378.5C 176.139,382.007 173.305,383.173 169.5,382C 161.621,377.561 153.621,373.394 145.5,369.5C 136.893,373.137 128.56,377.304 120.5,382C 116.754,383.222 114.087,382.056 112.5,378.5 Z"/></g>
<g><path style="opacity:1" fill="#fffcfb" d="M 223.5,315.5 C 227.363,315.538 231.196,315.205 235,314.5C 236.681,314.392 237.848,313.725 238.5,312.5C 242.049,304.4 245.883,296.4 250,288.5C 255.044,284.174 259.378,284.84 263,290.5C 267.066,297.961 270.566,305.627 273.5,313.5C 283.177,314.859 292.843,316.359 302.5,318C 306.629,320.631 307.462,324.131 305,328.5C 298.969,334.866 292.636,340.866 286,346.5C 286.589,355.543 287.755,364.543 289.5,373.5C 289.839,378.325 287.672,381.325 283,382.5C 273.932,378.05 264.765,373.717 255.5,369.5C 247.379,373.394 239.379,377.561 231.5,382C 224.835,383.171 221.835,380.337 222.5,373.5C 223.359,365.071 224.692,356.738 226.5,348.5C 220.181,341.681 213.681,335.014 207,328.5C 204.207,323.386 205.374,319.553 210.5,317C 214.813,316.265 219.147,315.765 223.5,315.5 Z"/></g>
<g><path style="opacity:1" fill="#fffcfb" d="M 397.5,357.5 C 397.336,360.187 397.503,362.854 398,365.5C 398.383,366.056 398.883,366.389 399.5,366.5C 400.331,370.476 400.497,374.476 400,378.5C 398.38,380.726 396.214,382.06 393.5,382.5C 384.347,378.423 375.347,374.09 366.5,369.5C 358.067,373.424 349.734,377.591 341.5,382C 335.973,382.646 332.973,380.146 332.5,374.5C 333.955,365.764 335.622,357.097 337.5,348.5C 330.848,341.348 324.015,334.348 317,327.5C 315.317,322.543 316.817,319.21 321.5,317.5C 329.813,317.226 337.813,315.892 345.5,313.5C 346.822,313.67 347.989,313.337 349,312.5C 352.667,304.833 356.333,297.167 360,289.5C 363.826,284.611 367.992,284.278 372.5,288.5C 376.5,296.5 380.5,304.5 384.5,312.5C 394.127,314.661 403.793,316.494 413.5,318C 417.01,319.907 418.176,322.74 417,326.5C 410.387,333.113 403.721,339.779 397,346.5C 396.421,350.203 396.588,353.869 397.5,357.5 Z"/></g>
<g><path style="opacity:1" fill="#ffc9b4" d="M 238.5,312.5 C 237.848,313.725 236.681,314.392 235,314.5C 231.196,315.205 227.363,315.538 223.5,315.5C 228.39,314.415 233.39,313.415 238.5,312.5 Z"/></g>
<g><path style="opacity:1" fill="#ffcab6" d="M 345.5,313.5 C 337.813,315.892 329.813,317.226 321.5,317.5C 329.295,315.717 337.295,314.383 345.5,313.5 Z"/></g>
<g><path style="opacity:1" fill="#ffc2ab" d="M 110.5,315.5 C 107.155,317.217 103.489,317.884 99.5,317.5C 102.974,316.475 106.64,315.808 110.5,315.5 Z"/></g>
<g><path style="opacity:1" fill="#ffc1a8" d="M 397.5,357.5 C 398.657,360.273 399.324,363.273 399.5,366.5C 398.883,366.389 398.383,366.056 398,365.5C 397.503,362.854 397.336,360.187 397.5,357.5 Z"/></g>
<g><path style="opacity:1" fill="#ffcdba" d="M 113.5,362.5 C 113.167,367.833 112.833,373.167 112.5,378.5C 111.356,373.112 111.689,367.779 113.5,362.5 Z"/></g>
</svg>
